PathFileType	4	(X/Y/Z)	C:\Users\Balu\Nextcloud\Documents\MA\Daten\C3D\P03\2016 - pre\Static01\marker_experimental.trc
DataRate	CameraRate	NumFrames	NumMarkers	Units	OrigDataRate	OrigDataStartFrame	OrigNumFrames
150.000000	150.000000	4	104	mm	150.000000	93	150
Frame#	Time	LFHD			LBHD			RFHD			RBHD			C7			T10			CLAV			STRN			RBAK			LSHO			LUPA			LELB			LFRA			LWRB			LWRA			LFIN			RSHO			RUPA			RELB			RFRA			RWRB			RWRA			RFIN			SACR			LASI			RASI			LT1			LT2			LT3			LS1			LS2			LS3			LHEE			LTOE			RT1			RT2			RT3			RS1			RS2			RS3			RHEE			RTOE			LKNE			LKNM			LANK			LANM			RKNM			RKNE			RANM			RANK			SACO			SACA			SACL			SACP			LKJC			RKJC			LAJC			RAJC			LMMA			RMMA			LTHI			RTHI			LTIB			RTIB			funktRKJC			funktLKJC			funktRHIP			funktLHIP			LHJC			RHJC			LPelvisAngles			RPelvisAngles			LFootProgressAngles			RFootProgressAngles			LHipAngles			RHipAngles			LKneeAngles			RKneeAngles			LAnkleAngles			RAnkleAngles			LFFootAngles			RFFootAngles			LAbsAnkleAngle			RAbsAnkleAngle			RNeckAngles			LNeckAngles			RSpineAngles			LSpineAngles			LShoulderAngles			LElbowAngles			LWristAngles			RShoulderAngles			RElbowAngles			RWristAngles			RThoraxAngles			LThoraxAngles			RHeadAngles			LHeadAngles			LNormalisedGRF			RNormalisedGRF			LGroundReactionForce			RGroundReactionForce			LGRF			RGRF			
		X1	Y1	Z1	X2	Y2	Z2	X3	Y3	Z3	X4	Y4	Z4	X5	Y5	Z5	X6	Y6	Z6	X7	Y7	Z7	X8	Y8	Z8	X9	Y9	Z9	X10	Y10	Z10	X11	Y11	Z11	X12	Y12	Z12	X13	Y13	Z13	X14	Y14	Z14	X15	Y15	Z15	X16	Y16	Z16	X17	Y17	Z17	X18	Y18	Z18	X19	Y19	Z19	X20	Y20	Z20	X21	Y21	Z21	X22	Y22	Z22	X23	Y23	Z23	X24	Y24	Z24	X25	Y25	Z25	X26	Y26	Z26	X27	Y27	Z27	X28	Y28	Z28	X29	Y29	Z29	X30	Y30	Z30	X31	Y31	Z31	X32	Y32	Z32	X33	Y33	Z33	X34	Y34	Z34	X35	Y35	Z35	X36	Y36	Z36	X37	Y37	Z37	X38	Y38	Z38	X39	Y39	Z39	X40	Y40	Z40	X41	Y41	Z41	X42	Y42	Z42	X43	Y43	Z43	X44	Y44	Z44	X45	Y45	Z45	X46	Y46	Z46	X47	Y47	Z47	X48	Y48	Z48	X49	Y49	Z49	X50	Y50	Z50	X51	Y51	Z51	X52	Y52	Z52	X53	Y53	Z53	X54	Y54	Z54	X55	Y55	Z55	X56	Y56	Z56	X57	Y57	Z57	X58	Y58	Z58	X59	Y59	Z59	X60	Y60	Z60	X61	Y61	Z61	X62	Y62	Z62	X63	Y63	Z63	X64	Y64	Z64	X65	Y65	Z65	X66	Y66	Z66	X67	Y67	Z67	X68	Y68	Z68	X69	Y69	Z69	X70	Y70	Z70	X71	Y71	Z71	X72	Y72	Z72	X73	Y73	Z73	X74	Y74	Z74	X75	Y75	Z75	X76	Y76	Z76	X77	Y77	Z77	X78	Y78	Z78	X79	Y79	Z79	X80	Y80	Z80	X81	Y81	Z81	X82	Y82	Z82	X83	Y83	Z83	X84	Y84	Z84	X85	Y85	Z85	X86	Y86	Z86	X87	Y87	Z87	X88	Y88	Z88	X89	Y89	Z89	X90	Y90	Z90	X91	Y91	Z91	X92	Y92	Z92	X93	Y93	Z93	X94	Y94	Z94	X95	Y95	Z95	X96	Y96	Z96	X97	Y97	Z97	X98	Y98	Z98	X99	Y99	Z99	X100	Y100	Z100	X101	Y101	Z101	X102	Y102	Z102	X103	Y103	Z103	X104	Y104	Z104	

94	0.62	-1140.375244140625	1436.607421875	-388.3602905273436	-1001.421203613281	1419.204223632812	-365.7223205566405	-1145.422485351562	1438.13916015625	-504.458526611328	-992.4691162109375	1420.553955078125	-514.3513793945311	-967.029541015625	1273.809448242188	-446.7726745605468	-914.7637939453125	1095.16552734375	-446.3129882812499	-1097.116088867188	1209.985717773438	-431.2142333984374	-1128.684814453125	1156.532958984375	-426.5600891113281	-934.7218627929688	1176.609497070312	-544.8610839843749	-1041.1455078125	1261.866333007812	-315.2580261230468	-977.9098510742188	1046.228393554688	-220.1150512695312	-967.5962524414062	972.998291015625	-191.1139678955078	-982.2327880859375	890.57080078125	-146.8024444580078	-1025.802612304688	770.4743041992188	-90.44801330566402	-1082.980834960938	775.4135131835938	-126.2713470458984	-1112.48388671875	718.0772705078125	-79.74798583984371	-1063.237915039062	1248.936889648438	-563.3565063476561	-1053.281372070312	1075.302978515625	-652.8294677734374	-1030.8408203125	956.87109375	-706.9308471679686	-1091.941284179688	827.9364624023438	-758.689697265625	-1104.043579101562	747.8611450195312	-778.4032592773438	-1145.70849609375	743.9769287109375	-725.685791015625	-1187.758911132812	697.08349609375	-770.5313110351562	-913.9768676757812	874.36181640625	-428.8537597656249	-1071.462646484375	870.6589965820312	-278.9033508300781	-1120.952392578125	876.58056640625	-522.4471435546875	-1127.554443359375	586.3565673828125	-242.1058197021484	-1078.963623046875	474.5832214355469	-229.3752288818359	-1202.611694335938	531.962646484375	-275.0653686523437	-1032.577392578125	217.2454223632813	-282.0863037109375	-950.0906372070312	148.8287658691407	-342.5814819335938	-1061.256103515625	131.696029663086	-253.7049865722656	-973.7435913085938	41.85627746582033	-367.8533020019531	-1082.808349609375	41.21382141113283	-261.7778930664062	-1131.641845703125	606.194091796875	-593.26220703125	-1056.419311523438	507.0458374023438	-586.282470703125	-1197.744384765625	533.9594116210938	-583.9852294921875	-1090.186401367188	266.0720214843751	-587.6904296875	-982.5173950195312	216.9159393310547	-562.5740356445312	-1117.51708984375	175.6650085449219	-582.8267822265625	-981.8404541015625	44.96820449829104	-500.141357421875	-1123.30224609375	41.77045822143558	-570.5642700195312	-1147.1728515625	432.6981811523438	-266.5396423339844	-1164.084594726562	421.6742858886719	-365.9076538085938	-993.9723510742188	49.50354385375979	-304.5821838378906	-1044.751098632812	47.62572860717776	-356.5786743164062	-1166.858520507812	423.6760864257813	-467.1247253417969	-1166.27880859375	439.1371459960938	-569.7440795898438	-1062.789916992188	52.77746963500979	-490.6980590820312	-1019.109252929688	47.58919525146488	-552.2913208007812	-982.5096435546875	874.2171630859375	-423.7649841308593	-988.1945190429688	874.187255859375	-422.6104736328124	-981.354736328125	874.0789794921875	-418.0817565917968	-982.5274047851562	932.2100219726562	-422.3513488769531	-1155.628662109375	427.1862182617188	-316.2236633300781	-1166.568603515625	431.4066162109376	-518.4343872070312	-1019.361755371094	48.56463623046877	-330.5804443359375	-1040.949584960938	50.18333435058597	-521.4946899414062	-1044.751098632812	47.62572860717776	-356.5786743164062	-1062.789916992188	52.77746963500979	-490.6980590820312	-1082.43212890625	611.2550048828125	-224.408706665039	-1115.784790039062	623.419921875	-603.2820434570312	-1008.717529296875	243.8529510498047	-241.5060424804687	-1040.4443359375	243.3945922851563	-614.0526123046875	0	0	0	0	0	0	0	0	0	0	0	0	-1043.140014648438	782.2911987304688	-354.3001708984374	-1065.695678710938	784.2349853515625	-468.0901794433593	0.01734426431357861	-11.48276424407959	1.396348237991332	0.01734426431357861	11.48276424407959	-1.396348237991332	0.4449696838855743	-44.1834602355957	-12.84864616394043	1.282036662101746	-26.4745979309082	-9.099847793579103	18.67207145690918	4.124202728271484	3.578030347824097	14.36654472351074	-9.538670539855957	9.478861808776855	38.08809661865234	-33.3651123046875	-2.215711116790774	34.21323776245117	-30.26213264465332	-7.169072628021242	15.22360420227051	-2.707528829574585	-1.307674765586853	14.99306774139404	5.181809425354004	0.4269491732120517	-1.987846699118444e-16	3.180554718589511e-15	-3.963269277785239e-15	7.951386796473776e-16	-4.770832183763384e-15	5.963540229704227e-16	15.12148857116699	0	0	14.87448883056641	0	0	-11.97602081298828	8.558894157409668	1.447426915168763	-11.97602081298828	-8.558894157409668	-1.447426915168763	4.779675006866455	5.627996921539307	-3.163169145584106	4.779675006866455	-5.627996921539307	3.163169145584106	-9.29974365234375	-11.34167957305908	-18.87077903747559	38.59759521484375	-1.537798209085006e-12	-3.180554718589605e-15	16.42568778991699	129.2738647460938	12.66075038909913	-8.022026062011719	1.43655025959015	-25.19035148620605	36.66536712646484	1.876527362318359e-12	3.975693557055681e-15	19.21065711975098	132.629638671875	0.323735535144814	5.095823287963867	5.980643272399902	1.257217407226563	5.095823287963867	-5.980643272399902	-1.257217407226563	6.803753852844238	-2.48248291015625	-0.7193388342857362	6.803753852844238	2.48248291015625	0.7193388342857362	0	0	0	0	0	0	0	0	0	0	0	0	0	0	0	0	0	0	
95	0.6266666666666667	-1140.503540039062	1436.5498046875	-388.4873657226561	-1001.553100585938	1419.22314453125	-365.8193054199218	-1145.548095703125	1438.059692382812	-504.5980224609374	-992.5643310546875	1420.55419921875	-514.4470825195311	-967.0623779296875	1273.798461914062	-446.8058776855468	-914.775146484375	1095.158569335938	-446.2235412597656	-1097.148071289062	1209.963989257812	-431.2961120605468	-1128.700439453125	1156.507446289062	-426.6511840820312	-934.6888427734375	1176.553100585938	-544.8167114257811	-1041.240600585938	1261.909545898438	-315.3132629394531	-977.9903564453125	1046.303344726562	-220.1195373535156	-967.6897583007812	973.0860595703125	-191.0941009521484	-982.3552856445312	890.6315307617188	-146.7965393066406	-1025.970336914062	770.54052734375	-90.46447753906246	-1083.128295898438	775.4694213867188	-126.3944396972656	-1112.65478515625	718.1361083984375	-79.86485290527339	-1063.141967773438	1248.828247070312	-563.4447021484374	-1053.0771484375	1075.163818359375	-652.8300170898436	-1030.6044921875	956.7117919921875	-706.8480834960936	-1091.686401367188	827.7575073242188	-758.6278686523438	-1103.724975585938	747.6589965820312	-778.350830078125	-1145.447265625	743.800048828125	-725.6145629882812	-1187.496704101562	696.9146118164062	-770.520263671875	-913.9761962890625	874.345947265625	-428.7810668945312	-1071.431640625	870.6502075195312	-278.7912902832031	-1120.978881835938	876.5833740234375	-522.3294677734375	-1127.599365234375	586.3358154296875	-242.0997924804687	-1079.025756835938	474.5665588378906	-229.3610076904297	-1202.643676757812	531.947021484375	-275.0954589843749	-1032.615356445312	217.2330169677735	-282.075927734375	-950.088134765625	148.8283996582032	-342.5112915039062	-1061.305908203125	131.686767578125	-253.7163543701172	-973.7348022460938	41.85670471191408	-367.8445739746094	-1082.817138671875	41.20886993408205	-261.7893981933594	-1131.6630859375	606.171142578125	-593.1538696289062	-1056.451782226562	507.0165405273438	-586.1322021484375	-1197.770874023438	533.9402465820312	-583.9000854492188	-1090.282958984375	266.0842590332032	-587.6221923828125	-982.5614624023438	216.9221801757813	-562.5542602539062	-1117.552001953125	175.6649627685547	-582.77685546875	-981.8407592773438	44.96951293945315	-500.1393737792969	-1123.310302734375	41.77654266357425	-570.55126953125	-1147.227905273438	432.6825256347656	-266.5573425292969	-1164.067138671875	421.6844787597656	-365.9654846191406	-993.9754638671875	49.50882720947268	-304.5762023925781	-1044.749755859375	47.61733627319338	-356.5878295898438	-1166.898315429688	423.6481933593751	-467.0258178710938	-1166.30859375	439.1245422363282	-569.6458129882812	-1062.7900390625	52.77481842041018	-490.6819763183594	-1019.110473632812	47.5973052978516	-552.2820434570312	-982.5126953125	874.206298828125	-423.6764831542968	-988.1973266601562	874.1768188476562	-422.5206604003906	-981.3565063476562	874.06787109375	-417.9935607910156	-982.5255737304688	932.1991577148438	-422.2612304687499	-1155.6474609375	427.1835021972656	-316.2614135742188	-1166.603393554688	431.3863830566407	-518.3358154296875	-1019.362548828125	48.56308364868166	-330.58203125	-1040.950317382812	50.18606185913089	-521.4819946289062	-1044.749755859375	47.61733627319338	-356.5878295898438	-1062.7900390625	52.77481842041018	-490.6819763183594	-1082.519897460938	611.2322998046875	-224.3679656982422	-1115.806396484375	623.40869140625	-603.1865844726562	-1008.739501953125	243.8572387695313	-241.51318359375	-1040.4716796875	243.4107360839844	-613.9991455078125	0	0	0	0	0	0	0	0	0	0	0	0	-1043.133911132812	782.28271484375	-354.2005310058593	-1065.7158203125	784.2318115234375	-467.9852294921874	0.01269048731774092	-11.49610805511475	1.398164987564086	0.01269048731774092	11.49610805511475	-1.398164987564086	0.4481685757637024	-44.17552947998047	-12.84965038299561	1.280517935752869	-26.4713077545166	-9.113752365112306	18.66839981079102	4.174602031707764	3.555054426193238	14.36142063140869	-9.555164337158203	9.480343818664551	38.08928680419922	-33.39995574951172	-2.21629071235657	34.22012710571289	-30.25772857666016	-7.155328273773195	15.22108554840088	-2.707842588424683	-1.307532906532288	14.99417209625244	5.180496692657471	0.4266301095485691	-2.584200748558647e-15	-3.18055471858951e-15	-2.733289294005924e-16	-1.987846699118444e-16	2.327904532941931e-31	-3.801756611886316e-15	15.12110996246338	0	0	14.87586688995361	0	0	-11.95584964752197	8.535552024841309	1.46530020236969	-11.95584964752197	-8.535552024841309	-1.46530020236969	4.792566299438477	5.679616928100586	-3.191034317016601	4.792566299438477	-5.679616928100586	3.191034317016601	-9.311152458190918	-11.31438636779785	-18.85062408447266	38.61506652832031	-2.083263303618438e-13	-3.975693557055578e-15	16.42386817932129	129.2977142333984	12.64633941650391	-8.019197463989258	1.41121554374695	-25.18755722045898	36.6597900390625	-3.862783790747892e-12	-2.365272902568843e-28	19.24532890319824	132.6612091064453	0.3075917661190114	5.105095863342285	5.945031642913818	1.285078287124634	5.105095863342285	-5.945031642913818	-1.285078287124634	6.773073673248291	-2.496783018112183	-0.7111948728561402	6.773073673248291	2.496783018112183	0.7111948728561402	0	0	0	0	0	0	0	0	0	0	0	0	0	0	0	0	0	0	
96	0.6333333333333334	-1140.627807617188	1436.495971679688	-388.6152038574218	-1001.684631347656	1419.255126953125	-365.9138183593749	-1145.667358398438	1437.983276367188	-504.738800048828	-992.64892578125	1420.561889648438	-514.5395507812499	-967.1043701171875	1273.788818359375	-446.8343505859374	-914.7901000976562	1095.15185546875	-446.1264953613281	-1097.179809570312	1209.953002929688	-431.3710632324218	-1128.715087890625	1156.494873046875	-426.7320861816406	-934.6513671875	1176.50048828125	-544.7587280273436	-1041.337768554688	1261.961181640625	-315.3631591796874	-978.073974609375	1046.386840820312	-220.1166839599609	-967.779296875	973.1812133789062	-191.0718536376953	-982.465576171875	890.7017822265625	-146.7839965820312	-1026.14599609375	770.611083984375	-90.49417877197261	-1083.268188476562	775.541259765625	-126.4939880371093	-1112.83154296875	718.1958618164062	-79.99462890624996	-1063.052734375	1248.737060546875	-563.5202026367186	-1052.869262695312	1075.033447265625	-652.8182983398436	-1030.35107421875	956.5588989257812	-706.7493896484374	-1091.403564453125	827.57958984375	-758.5497436523438	-1103.378540039062	747.4544067382812	-778.2804565429688	-1145.168090820312	743.6234130859375	-725.5242919921875	-1187.20703125	696.7391357421875	-770.4846801757812	-913.9927368164062	874.3365478515625	-428.7174682617187	-1071.403686523438	870.6500854492188	-278.6916809082031	-1121.010620117188	876.5850219726562	-522.219970703125	-1127.63427734375	586.3190307617188	-242.1010284423828	-1079.072631835938	474.5546875	-229.3608093261718	-1202.664306640625	531.9323120117188	-275.1318969726562	-1032.649047851562	217.2212219238282	-282.0649108886719	-950.081787109375	148.8235473632813	-342.4326171875	-1061.360107421875	131.679183959961	-253.7302703857422	-973.724365234375	41.85557556152346	-367.8338623046875	-1082.830322265625	41.19774246215822	-261.8067016601562	-1131.698486328125	606.1436767578125	-593.0448608398438	-1056.495971679688	506.9863281250001	-585.981201171875	-1197.813842773438	533.9182739257812	-583.80810546875	-1090.401245117188	266.0942382812501	-587.551513671875	-982.6138305664062	216.9248962402344	-562.5505981445312	-1117.591552734375	175.6618804931641	-582.721923828125	-981.84033203125	44.97148895263675	-500.13623046875	-1123.320068359375	41.78210067749027	-570.5372314453125	-1147.322998046875	432.6953125	-266.5474243164062	-1164.031372070312	421.6935729980469	-366.0331726074219	-993.9751586914062	49.52014541625979	-304.5638427734375	-1044.747192382812	47.60817337036135	-356.5968933105469	-1166.938598632812	423.6141967773438	-466.9217224121094	-1166.348999023438	439.1072692871094	-569.5472412109375	-1062.790649414062	52.77258300781253	-490.6666870117188	-1019.113891601562	47.60639572143558	-552.2725219726562	-982.5202026367188	874.2006225585938	-423.5998229980468	-988.20458984375	874.1715087890625	-422.4426574707031	-981.3626708984375	874.0621337890625	-417.9171447753906	-982.5293579101562	932.1934814453125	-422.1846313476562	-1155.67724609375	427.1944580078125	-316.290283203125	-1166.643798828125	431.3607177734376	-518.2344970703125	-1019.361145019531	48.56415939331057	-330.5803527832031	-1040.952270507812	50.18948745727542	-521.4696044921875	-1044.747192382812	47.60817337036135	-356.5968933105469	-1062.790649414062	52.77258300781253	-490.6666870117188	-1082.684692382812	611.247802734375	-224.318359375	-1115.84326171875	623.3956298828125	-603.095458984375	-1008.763793945312	243.8700561523438	-241.5100860595703	-1040.50439453125	243.42578125	-613.9441528320312	0	0	0	0	0	0	0	0	0	0	0	0	-1043.12939453125	782.28076171875	-354.1086120605468	-1065.739013671875	784.230712890625	-467.8877868652343	0.009217572398483753	-11.5101261138916	1.397934079170226	0.009217572398483753	11.5101261138916	-1.397934079170226	0.4587967097759247	-44.16090774536133	-12.84368133544922	1.279869675636292	-26.46718597412109	-9.127816200256349	18.6676139831543	4.264091014862061	3.53193211555481	14.35742855072021	-9.566216468811035	9.482487678527832	38.09266662597656	-33.46302795410156	-2.243311643600466	34.22726440429688	-30.25815200805664	-7.142774105072023	15.21607875823975	-2.701568841934204	-1.305380821228028	14.99517345428467	5.179309844970703	0.4263415634632114	-1.292100374279323e-15	-3.18055471858951e-15	-5.603242801249233e-15	-3.975693398236888e-16	3.180554718589511e-15	-6.932615272185706e-15	15.12222480773926	0	0	14.8774938583374	0	0	-11.93467998504639	8.514782905578613	1.483359575271607	-11.93467998504639	-8.514782905578613	-1.483359575271607	4.805860996246338	5.730767250061035	-3.218490123748779	4.805860996246338	-5.730767250061035	3.218490123748779	-9.321450233459473	-11.28713607788086	-18.82859039306641	38.63469696044922	4.548193419107172e-13	2.38541609188172e-15	16.42211151123047	129.2934722900391	12.64775848388673	-8.019303321838379	1.382654786109926	-25.18363189697266	36.65571975708008	9.03277507045136e-13	5.530979538723133e-29	19.27995491027832	132.6868133544922	0.297370731830605	5.115932941436768	5.910729885101318	1.314448237419129	5.115932941436768	-5.910729885101318	-1.314448237419129	6.739768981933594	-2.512596607208252	-0.7019612193107606	6.739768981933594	2.512596607208252	0.7019612193107606	0	0	0	0	0	0	0	0	0	0	0	0	0	0	0	0	0	0	
97	0.64	-1140.747802734375	1436.445678710938	-388.7438659667968	-1001.814086914062	1419.298583984375	-366.005157470703	-1145.778076171875	1437.911376953125	-504.8798217773436	-992.722412109375	1420.577026367188	-514.6264038085936	-967.15087890625	1273.78173828125	-446.8569641113281	-914.806884765625	1095.1455078125	-446.0200195312499	-1097.20849609375	1209.95166015625	-431.4413146972656	-1128.730590820312	1156.490600585938	-426.8068847656249	-934.598388671875	1176.452880859375	-544.6840820312499	-1041.437133789062	1262.020751953125	-315.4078674316406	-978.1614990234375	1046.478271484375	-220.1047210693359	-967.8594970703125	973.2785034179688	-191.0375366210937	-982.5733032226562	890.7842407226562	-146.7637176513671	-1026.333129882812	770.68212890625	-90.5458602905273	-1083.394287109375	775.6232299804688	-126.5658721923828	-1113.012084960938	718.254638671875	-80.13967895507808	-1062.987060546875	1248.665161132812	-563.5864257812499	-1052.663208007812	1074.913208007812	-652.7950439453124	-1030.082885742188	956.4136352539062	-706.6376342773436	-1091.08740234375	827.40185546875	-758.4558715820312	-1103.022705078125	747.2531127929688	-778.1627197265625	-1144.88232421875	743.4530639648438	-725.4283447265625	-1186.877685546875	696.5482788085938	-770.4228515625	-914.0245361328125	874.3350219726562	-428.6629943847656	-1071.38330078125	870.6594848632812	-278.6068725585937	-1121.045166015625	876.5824584960938	-522.1227416992188	-1127.65771484375	586.3058471679688	-242.108413696289	-1079.101928710938	474.5472106933594	-229.3736877441406	-1202.674438476562	531.9182739257812	-275.1691894531249	-1032.677001953125	217.2115936279297	-282.0555114746094	-950.073486328125	148.8153991699219	-342.3585815429688	-1061.412841796875	131.6739349365235	-253.7461395263672	-973.7150268554688	41.85321044921877	-367.8240051269531	-1082.848388671875	41.18170547485353	-261.82958984375	-1131.749145507812	606.111572265625	-592.937255859375	-1056.556518554688	506.9554138183594	-585.8361206054688	-1197.87744140625	533.89208984375	-583.7093505859375	-1090.533569335938	266.1005249023438	-587.48095703125	-982.6705322265625	216.9258575439453	-562.5572509765625	-1117.636108398438	175.6560821533203	-582.662841796875	-981.8392333984375	44.97391891479495	-500.1319274902344	-1123.330444335938	41.78715896606449	-570.52197265625	-1147.435424804688	432.726806640625	-266.5210876464844	-1163.991333007812	421.7006530761719	-366.1049194335938	-993.9708251953125	49.53617095947268	-304.5469360351562	-1044.744140625	47.59793472290041	-356.6055908203125	-1166.9775390625	423.5779724121094	-466.8109741210938	-1166.406982421875	439.0836791992188	-569.4484252929688	-1062.792602539062	52.77007675170901	-490.6528930664062	-1019.119689941406	47.61617279052738	-552.2633666992188	-982.5325317382812	874.2007446289062	-423.5346679687499	-988.2166137695312	874.1717529296875	-422.3762207031249	-981.3737182617188	874.0625610351562	-417.8522644042968	-982.54052734375	932.1936645507812	-422.1227416992187	-1155.71337890625	427.2137145996094	-316.31298828125	-1166.692260742188	431.3308410644532	-518.1296997070312	-1019.357421875	48.56705474853518	-330.5762634277344	-1040.956176757812	50.19312286376956	-521.4581298828125	-1044.744140625	47.59793472290041	-356.6055908203125	-1062.792602539062	52.77007675170901	-490.6528930664062	-1082.883178710938	611.2849731445312	-224.2660369873047	-1115.903198242188	623.3821411132812	-603.00830078125	-1008.787414550781	243.8890075683594	-241.5019378662109	-1040.54296875	243.4408721923828	-613.8877563476562	0	0	0	0	0	0	0	0	0	0	0	0	-1043.127685546875	782.28564453125	-354.0248413085937	-1065.763061523438	784.22998046875	-467.7989807128906	0.00785262044519186	-11.52314949035645	1.394916176795959	0.00785262044519186	11.52314949035645	-1.394916176795959	0.4750159084796906	-44.13982391357422	-12.83209705352784	1.279881119728088	-26.4622745513916	-9.142447471618654	18.66926574707031	4.368269443511963	3.508146047592164	14.35651969909668	-9.566013336181641	9.485675811767578	38.0974006652832	-33.53853225708008	-2.282532930374148	34.23528671264648	-30.26721572875977	-7.133168220520021	15.20936965942383	-2.687489748001099	-1.30096173286438	14.99635314941406	5.178603172302246	0.4261871874332431	2.484808473159728e-16	1.590277359294756e-15	-6.535045958831797e-15	-1.987846778527783e-15	4.770832183763385e-15	-8.299260157416683e-15	15.12389850616455	0	0	14.87982845306396	0	0	-11.91111946105957	8.495393753051758	1.501998782157898	-11.91111946105957	-8.495393753051758	-1.501998782157898	4.816903591156006	5.781407356262207	-3.244062900543212	4.816903591156006	-5.781407356262207	3.244062900543212	-9.334454536437988	-11.25347423553467	-18.8066234588623	38.65911865234375	1.075027436861498e-12	7.951386796474434e-16	16.42150497436523	129.2519378662109	12.65991210937501	-8.02568244934082	1.354720473289491	-25.17762756347656	36.65921401977539	3.018346423494522e-12	-7.951386796471928e-16	19.29077529907227	132.6880950927734	0.294809639453896	5.126392364501953	5.875994205474854	1.345019459724427	5.126392364501953	-5.875994205474854	-1.345019459724427	6.704352855682373	-2.530333757400513	-0.6923723816871644	6.704352855682373	2.530333757400513	0.6923723816871644	0	0	0	0	0	0	0	0	0	0	0	0	0	0	0	0	0	0	
